<svg width="270" height="162" viewBox="0 0 270 162" fill="none" xmlns="http://www.w3.org/2000/svg">
<g clip-path="url(#clip0_2_2)">
<rect width="270" height="162" fill="white"/>
<path d="M0 0H30L54 81L30 162H0V0Z" fill="#0B1F3A"/>
<path d="M0 24L54 81L0 138V24Z" fill="#1E6FD9"/>
<path d="M0 81H54L0 138V81Z" fill="#38B6FF"/>
<path d="M270 0H240L216 81L240 162H270V0Z" fill="#0B1F3A"/>
<path d="M270 24L216 81L270 138V24Z" fill="#1E6FD9"/>
<path d="M270 24L216 81H270V24Z" fill="#38B6FF"/>
<g>
<g clip-path="url(#clip2_2_2)">
<rect x="121" y="30" width="28" height="28" rx="6" fill="url(#paint0_linear_2_2)"/>
<path d="M149 30V41L138 30H149Z" fill="#38B6FF"/>
<text fill="white" style="white-space: pre" xml:space="preserve" font-family="Montserrat" font-size="13" font-weight="800" letter-spacing="0.5px"><tspan x="128.42" y="48.66">TI</tspan></text>
</g>
<text fill="#0B1F3A" style="white-space: pre" xml:space="preserve" font-family="Montserrat" font-size="20" font-weight="800" letter-spacing="3px"><tspan x="96.52" y="82.17">TIMES</tspan></text>
<text fill="#1E6FD9" style="white-space: pre" xml:space="preserve" font-family="Montserrat" font-size="9" font-weight="600" letter-spacing="2.2px"><tspan x="83.21" y="95.22">INTERNATIONAL</tspan></text>
<rect x="117" y="103" width="36" height="1.2" fill="#38B6FF"/>
<text fill="#4A5568" style="white-space: pre" xml:space="preserve" font-family="Inter" font-size="9" font-weight="500" letter-spacing="0.2px"><tspan x="93.75" y="118.22">All Kinds of Goods</tspan><tspan x="94.41" y="129.72">Import from China</tspan></text>
</g>
</g>
<defs>
<linearGradient id="paint0_linear_2_2" x1="128" y1="37" x2="142" y2="51" gradientUnits="userSpaceOnUse">
<stop stop-color="#1E6FD9"/>
<stop offset="1" stop-color="#0B1F3A"/>
</linearGradient>
<clipPath id="clip0_2_2">
<rect width="270" height="162" fill="white"/>
</clipPath>
<clipPath id="clip2_2_2">
<rect x="121" y="30" width="28" height="28" rx="6" fill="white"/>
</clipPath>
</defs>
</svg>
