<svg xmlns="http://www.w3.org/2000/svg" width="270pt" height="162pt" viewBox="-9 -9 270 162">
<title>Dentex visiting card - Back (3.5x2in trim + 0.125in bleed)</title>
<defs><clipPath id="bleed"><rect x="-9" y="-9" width="270" height="162"/></clipPath></defs>
<g clip-path="url(#bleed)">
<rect id="BG White (full bleed)" x="-9" y="-9" width="270" height="162" rx="0" fill="#FFFFFF"/>
<circle id="Soft shape" cx="302" cy="80" r="100" fill="#F3F9F9"/>
<g id="Watermark tooth" fill="none" stroke="#E3F1F1" stroke-width="10.769" stroke-linecap="round" stroke-linejoin="round">
<path d="M 213.769 162.205 L 204.077 47.333 C 201.923 16.821 211.974 -4 238.897 -4 L 326.846 -4 C 348.385 -4 357.359 9.641 355.564 31.179 L 339.41 162.205"/>
<path d="M 339.41 162.205 C 326.846 156.821 316.077 135.282 294.538 110.154 L 251.462 52.718 C 238.897 36.564 222.744 29.385 206.59 34.769"/>
<path d="M 283.769 95.795 C 273 121.641 244.282 143.179 213.769 162.205"/>
</g>
<text id="Name" x="14.000" y="30" font-family="Poppins" font-weight="700" font-size="14" letter-spacing="0.2" fill="#0B8184">DR. ANJUMAN ARA MUNA</text>
<text id="Degrees" x="14.000" y="42" font-family="Poppins" font-weight="500" font-size="8" letter-spacing="0" fill="#555555">BDS, BCS, DDS, FCPS</text>
<text id="Speciality" x="14.000" y="52" font-family="Poppins" font-weight="400" font-size="8" letter-spacing="0" fill="#555555">Orthodontics &amp; Dentofacial Orthopedics</text>
<text id="Designation" x="14.000" y="65" font-family="Poppins" font-weight="600" font-size="9" letter-spacing="0" fill="#333333">Assistant Professor</text>
<text id="Institution" x="14.000" y="75" font-family="Poppins" font-weight="400" font-size="8" letter-spacing="0" fill="#555555">Dhaka Dental College Hospital</text>
<rect id="Teal rule" x="14" y="83" width="132" height="0.75" rx="0" fill="#0FAAAC"/>
<g id="Icon phone">
<path d="M 15.7 94.2 C 16.167 95.133 16.967 95.9 17.9 96.4 L 18.633 95.667 C 18.733 95.567 18.867 95.533 18.967 95.6 C 19.333 95.733 19.733 95.8 20.167 95.8 C 20.367 95.8 20.5 95.933 20.5 96.133 L 20.5 97.267 C 20.5 97.467 20.367 97.6 20.167 97.6 C 17.033 97.6 14.5 95.067 14.5 91.933 C 14.5 91.733 14.633 91.6 14.833 91.6 L 16 91.6 C 16.2 91.6 16.333 91.733 16.333 91.933 C 16.333 92.367 16.4 92.767 16.533 93.133 C 16.567 93.233 16.533 93.367 16.467 93.467 L 15.7 94.2 Z" fill="#0B8184"/>
</g>
<text id="Phone" x="25.000" y="97" font-family="Poppins" font-weight="400" font-size="8" letter-spacing="0" fill="#333333">01733-682188</text>
<g id="Icon email">
<path d="M 20.167 103.933 L 14.833 103.933 C 14.467 103.933 14.167 104.233 14.167 104.6 L 14.167 108.6 C 14.167 108.967 14.467 109.267 14.833 109.267 L 20.167 109.267 C 20.533 109.267 20.833 108.967 20.833 108.6 L 20.833 104.6 C 20.833 104.233 20.533 103.933 20.167 103.933 Z M 20.167 105.267 L 17.5 106.933 L 14.833 105.267 L 14.833 104.6 L 17.5 106.267 L 20.167 104.6 L 20.167 105.267 Z" fill="#0B8184"/>
</g>
<text id="Email" x="25.000" y="109" font-family="Poppins" font-weight="400" font-size="8" letter-spacing="0" fill="#333333">dentex6037@gmail.com</text>
<g id="Icon web">
<circle cx="17.500" cy="118.600" r="3.333" fill="#0B8184"/>
<ellipse cx="17.500" cy="118.600" rx="1.400" ry="3.333" fill="none" stroke="#FFFFFF" stroke-width="0.533"/>
<line x1="14.167" y1="118.600" x2="20.833" y2="118.600" stroke="#FFFFFF" stroke-width="0.533"/>
</g>
<text id="Website" x="25.000" y="121" font-family="Poppins" font-weight="400" font-size="8" letter-spacing="0" fill="#333333">www.dentex.cc</text>
<circle id="Govt logo backing" cx="225" cy="32" r="16" fill="#FFFFFF"/>
<g id="PLACEHOLDER Govt of Bangladesh logo (28pt)" fill="none" stroke="#B3B3B3" stroke-width="0.5" stroke-dasharray="2 1.5"><circle cx="225" cy="32" r="14"/><line x1="215.101" y1="22.101" x2="234.899" y2="41.899"/><line x1="234.899" y1="22.101" x2="215.101" y2="41.899"/></g>
<rect id="QR backing" x="192" y="74" width="50" height="50" rx="4" fill="#FFFFFF"/>
<g id="PLACEHOLDER QR code (44pt)" fill="none" stroke="#B3B3B3" stroke-width="0.5" stroke-dasharray="2 1.5"><rect x="195" y="77" width="44" height="44"/><line x1="195" y1="77" x2="239" y2="121"/><line x1="239" y1="77" x2="195" y2="121"/></g>
</g></svg>